<?xml version="1.0" standalone="no"?>
<!DOCTYPE svg PUBLIC "-//W3C//DTD SVG 20010904//EN"
 "http://www.w3.org/TR/2001/REC-SVG-20010904/DTD/svg10.dtd">
<svg version="1.0" xmlns="http://www.w3.org/2000/svg"
 width="1315.000000pt" height="1243.000000pt" viewBox="0 0 1315.000000 1243.000000"
 preserveAspectRatio="xMidYMid meet">
<metadata>
Created by potrace 1.11, written by Peter Selinger 2001-2013
</metadata>
<g transform="translate(0.000000,1243.000000) scale(0.100000,-0.100000)"
fill="#000000" stroke="none">
<path d="M0 6215 l0 -6215 6575 0 6575 0 0 6215 0 6215 -6575 0 -6575 0 0
-6215z m5828 4311 c52 -5 161 -55 190 -86 56 -60 89 -204 79 -348 -8 -124 -13
-133 -88 -160 -35 -12 -70 -22 -77 -22 -8 0 -28 -7 -45 -14 -39 -18 -157 -49
-164 -43 -2 3 13 13 34 24 49 26 85 95 91 173 4 53 2 59 -29 95 -47 53 -99 75
-183 75 -64 0 -72 -2 -112 -36 -56 -45 -61 -55 -68 -136 -10 -104 28 -172 115
-207 l24 -10 -26 0 c-36 -1 -216 -47 -254 -65 -72 -33 -182 -90 -205 -106 -14
-9 -46 -30 -72 -47 -57 -38 -106 -40 -124 -5 -6 13 -17 29 -23 35 -6 6 -11 24
-11 39 0 25 3 28 24 22 19 -4 29 2 52 32 42 56 56 73 89 113 17 20 42 53 55
73 14 21 28 38 32 38 4 0 34 35 67 78 96 124 320 348 431 429 56 41 126 73
145 67 5 -2 29 -5 53 -8z m-1929 -987 c12 0 37 -5 55 -13 17 -7 58 -22 91 -32
33 -10 61 -19 63 -20 2 -1 -13 -23 -32 -49 -37 -48 -46 -91 -24 -113 20 -20
-6 -35 -64 -35 -80 0 -118 11 -118 34 0 11 -7 31 -16 44 -17 26 -31 153 -20
181 4 11 12 14 24 9 9 -4 28 -7 41 -6z m2367 -774 c5 -119 4 -121 -25 -175
-17 -30 -43 -79 -58 -107 -15 -29 -30 -53 -34 -53 -4 0 -25 29 -48 65 -28 45
-46 65 -61 65 -18 0 -20 -6 -20 -82 -1 -94 -10 -148 -43 -231 -17 -45 -26 -57
-41 -55 -23 4 -23 4 -35 199 -10 152 -23 213 -45 206 -11 -4 -12 -25 -7 -222
3 -145 8 -136 -83 -167 -43 -14 -101 -38 -127 -53 -27 -14 -53 -24 -59 -20 -5
3 -12 22 -15 43 -19 125 -38 196 -62 237 -9 16 -14 17 -24 8 -10 -10 -8 -32 9
-105 11 -51 24 -114 27 -140 8 -59 -6 -68 -105 -68 -70 0 -151 -20 -252 -61
-72 -29 -74 -28 -82 49 -6 63 -54 214 -75 235 -5 5 -15 6 -21 2 -16 -10 -6
-68 21 -132 23 -53 30 -156 13 -173 -8 -8 -22 -9 -46 -2 -46 13 -146 6 -191
-13 -20 -8 -41 -15 -46 -15 -22 0 -120 197 -121 242 0 26 3 27 113 52 61 14
162 35 224 46 106 19 150 30 336 80 43 11 122 40 175 64 53 23 126 53 162 66
137 48 321 156 440 259 36 31 67 59 70 62 3 3 27 25 54 49 l50 42 13 -38 c8
-22 16 -93 19 -159z m32 -262 c6 -21 14 -56 18 -78 4 -22 10 -47 15 -56 9 -17
-11 -160 -33 -242 -8 -30 -27 -62 -52 -87 -21 -22 -40 -39 -42 -38 -1 2 -5 59
-9 128 -4 69 -9 133 -11 142 -11 38 70 268 95 268 4 0 13 -17 19 -37z m-184
-131 c4 -20 8 -80 10 -132 3 -52 9 -126 14 -163 12 -79 8 -97 -22 -97 -12 0
-27 -5 -32 -10 -14 -14 -139 -40 -193 -40 -37 0 -42 2 -30 13 18 14 80 100 99
136 23 44 77 205 95 284 17 72 19 76 36 62 9 -9 20 -33 23 -53z m-1844 -114
c47 -6 130 -8 186 -5 l101 5 11 -58 c7 -39 27 -87 61 -143 28 -46 51 -88 51
-93 -1 -15 -75 -44 -114 -44 -38 0 -63 15 -136 84 -14 13 -43 33 -65 45 -43
23 -99 97 -111 144 -8 35 -22 43 -41 25 -13 -13 -11 -22 16 -72 17 -31 27 -56
23 -56 -17 0 -133 114 -153 150 -13 22 -26 40 -31 40 -4 0 -8 8 -8 19 0 18 4
17 63 -7 34 -13 100 -29 147 -34z m1603 -93 c13 -8 33 -13 45 -10 12 2 22 1
22 -2 0 -16 -83 -152 -111 -181 -17 -18 -29 -38 -26 -45 3 -8 -12 -13 -47 -15
-55 -3 -200 -25 -281 -42 -135 -30 -254 -50 -321 -57 -54 -5 -62 -3 -67 13 -4
11 -13 37 -21 59 -26 67 -23 73 59 110 142 65 318 95 332 58 4 -10 10 -20 13
-23 4 -3 11 -34 16 -70 8 -55 12 -65 29 -65 18 0 20 6 17 63 -2 35 -7 74 -12
88 -8 20 -7 24 10 24 12 0 20 -8 22 -22 4 -29 41 -31 46 -3 8 44 82 93 182
121 59 17 67 17 93 -1z m-1660 -98 c17 -15 74 -48 124 -73 56 -27 100 -55 110
-71 9 -14 31 -32 49 -39 17 -7 55 -36 85 -65 30 -29 71 -63 92 -77 20 -13 37
-28 37 -33 0 -4 -17 -11 -37 -14 -42 -8 -208 -61 -235 -76 -14 -7 -18 -5 -18
6 0 9 -9 15 -24 15 -24 0 -42 18 -150 148 -79 96 -193 355 -164 373 11 7 34
-10 131 -94z m760 -86 c18 -7 26 -20 32 -48 4 -21 10 -42 15 -48 4 -5 10 -21
12 -35 3 -14 9 -33 13 -42 5 -14 2 -18 -15 -18 -12 0 -54 -11 -93 -24 -150
-51 -150 -51 -204 -11 -26 20 -70 55 -97 78 l-49 41 39 9 c33 7 41 5 56 -15
10 -13 18 -27 18 -33 0 -5 13 -25 28 -43 20 -24 32 -31 45 -26 20 7 14 43 -9
57 -8 4 -23 26 -34 47 -20 39 -20 39 -1 50 11 5 22 19 26 30 10 32 159 53 218
31z m405 -3221 c14 -40 6 -78 -26 -120 -15 -19 -37 -50 -50 -69 -27 -39 -55
-65 -94 -86 -25 -14 -29 -14 -47 4 -21 21 -21 74 0 141 21 65 123 153 183 158
19 1 27 -5 34 -28z m-288 -1186 c0 -9 -6 -42 -14 -73 -18 -70 -44 -239 -53
-350 -5 -47 -13 -86 -18 -88 -10 -3 -65 106 -65 128 0 5 -3 9 -7 9 -5 0 -21
26 -36 58 l-29 57 22 57 c25 67 64 118 133 176 57 46 67 50 67 26z m948 -675
c2 -5 8 -7 12 -4 5 3 18 -3 29 -14 13 -13 21 -16 25 -8 2 7 5 4 5 -5 1 -10 6
-18 11 -18 6 0 19 -15 30 -32 11 -18 20 -28 20 -23 0 6 5 3 10 -5 5 -8 7 -23
4 -34 -4 -11 -2 -16 4 -12 6 4 8 -2 4 -16 -4 -16 -2 -19 9 -13 11 6 12 5 2 -6
-15 -16 -17 -33 -3 -24 5 3 8 0 5 -7 -4 -12 -14 -77 -17 -105 -1 -7 -5 -13
-10 -13 -5 0 -6 -4 -3 -10 3 -5 2 -10 -3 -10 -5 0 -9 -7 -10 -15 -1 -8 -3 -22
-4 -30 -1 -8 -5 -12 -10 -9 -5 3 -5 10 -2 16 4 7 2 8 -4 4 -6 -4 -9 -13 -6
-20 3 -8 0 -17 -5 -21 -6 -3 -8 -12 -4 -18 5 -9 3 -9 -8 0 -13 10 -15 8 -13
-16 1 -18 -3 -28 -12 -28 -10 0 -11 4 -2 14 8 10 8 17 -2 26 -10 9 -11 9 -6
-1 4 -7 2 -19 -4 -27 -6 -8 -9 -18 -7 -22 3 -5 -4 -10 -15 -10 -12 -1 -25 -8
-31 -15 -6 -10 -8 -9 -4 4 6 17 -16 19 -30 3 -4 -4 -1 -5 7 0 12 6 13 5 3 -5
-17 -19 -40 -21 -40 -4 0 11 4 11 16 2 10 -8 8 -4 -3 10 -13 15 -23 19 -31 12
-6 -5 -16 -6 -20 -2 -5 4 -5 -2 -1 -12 7 -20 7 -20 -15 0 -12 10 -20 14 -16 8
3 -6 0 -11 -8 -11 -8 0 -12 4 -9 9 3 4 -2 8 -11 8 -8 0 -18 7 -21 15 -4 8 -10
15 -16 15 -5 0 -6 -5 -2 -12 4 -7 3 -8 -5 -4 -6 4 -9 12 -6 17 4 5 -1 9 -10 9
-9 0 -13 5 -10 10 3 6 1 10 -5 10 -6 0 -9 4 -5 9 3 6 -3 15 -13 20 -27 15 -64
123 -64 191 -1 102 75 205 175 235 45 14 150 10 155 -6z m-102 -1679 c38 -22
72 -40 75 -40 4 0 23 -7 43 -15 l37 -16 -28 -28 c-15 -15 -43 -58 -62 -94 -47
-93 -52 -96 -96 -50 -19 21 -48 56 -63 78 -15 22 -31 43 -35 46 -5 3 1 33 13
65 12 32 24 67 27 77 7 24 11 22 89 -23z"/>
</g>
</svg>
